:FULLY-SPECIFIED
:FORCE-ALL-JOINTS-BE-3DOF
:DEGREES
442
root 1.48949 15.2316 -9.1147 5.49212 4.83139 -13.5423
lfemur -46.8501 16.8114 3.9745
ltibia 62.9553 0 0
lfoot -24.9916 -10.2701 0
ltoes -12.7255 0 0
rfemur -14.9411 -3.44768 8.90199
rtibia 38.8284 0 0
rfoot -14.6389 -13.9723 0
rtoes -49.791 0 0
lowerback 6.02945 1.6015 4.3986
upperback 1.01281 2.43843 0.924751
thorax -2.1908 1.18676 -1.7001
lowerneck -7.15866 0.0337935 5.62298
upperneck 0.687406 -0.434285 0.0690367
head 1.41974 -0.189785 -0.949097
lclavicle 2.90226e-14 6.36111e-15 0
lhumerus -39.6318 -28.4329 97.6213
lradius 54.1431 0 0
lwrist 7.92235 0 0
lhand -20.0855 -1.30814 0
lfingers 7.12502 0 0
lthumb 6.25724 28.5794 0
rclavicle 2.90226e-14 6.36111e-15 0
rhumerus -48.3514 -2.52445 -89.7222
rradius 66.3347 0 0
rwrist 12.906 0 0
rhand -30.9208 -29.1118 0
rfingers 7.12502 0 0
rthumb -4.20662 -779.05 0
443
root 1.45534 15.2379 -9.06618 5.55356 6.56111 -13.7194
lfemur -48.0711 17.8023 3.07004
ltibia 63.1479 0 0
lfoot -24.1844 -9.9161 0
ltoes -11.5117 0 0
rfemur -14.2331 -4.52091 9.36703
rtibia 38.6613 0 0
rfoot -14.5751 -14.6073 0
rtoes -49.8811 0 0
lowerback 5.93025 1.59108 4.54466
upperback 0.975383 2.42964 0.987873
thorax -2.17182 1.18175 -1.7135
lowerneck -7.16359 -0.153585 5.43324
upperneck 0.482388 -0.664548 0.0888265
head 1.34628 -0.309481 -0.916101
lclavicle 3.50076e-14 1.377e-15 0
lhumerus -39.606 -28.0708 97.821
lradius 54.2325 0 0
lwrist 7.59191 0 0
lhand -20.9188 -1.87086 0
lfingers 7.12502 0 0
lthumb 5.45258 28.0311 0
rclavicle 3.50076e-14 1.377e-15 0
rhumerus -48.233 -2.43612 -89.5809
rradius 66.1766 0 0
rwrist 12.82 0 0
rhand -30.2182 -28.5742 0
rfingers 7.12502 0 0
rthumb -3.52816 -778.524 0
444
root 1.43124 15.2481 -9.01476 5.62033 8.3686 -13.9143
lfemur -49.4145 18.7753 1.96559
ltibia 63.3728 0 0
lfoot -23.2637 -9.34042 0
ltoes -10.0642 0 0
rfemur -13.4836 -5.49652 9.78626
rtibia 38.3858 0 0
rfoot -14.4414 -15.128 0
rtoes -50.0123 0 0
lowerback 5.77321 1.54444 4.78192
upperback 0.935288 2.37509 1.067
thorax -2.12369 1.15406 -1.75626
lowerneck -7.15754 -0.335041 5.2478
upperneck 0.316372 -0.887183 0.0987367
head 1.285 -0.424306 -0.886552
lclavicle 4.36932e-14 -5.34112e-15 0
lhumerus -39.6428 -27.6358 98.078
lradius 54.2788 0 0
lwrist 7.2267 0 0
lhand -21.9524 -2.56419 0
lfingers 7.12502 0 0
lthumb 4.45445 27.3531 0
rclavicle 4.36932e-14 -5.34112e-15 0
rhumerus -48.1314 -2.31495 -89.3737
rradius 66.0743 0 0
rwrist 12.7172 0 0
rhand -29.4438 -27.8494 0
rfingers 7.12502 0 0
rthumb -2.78028 -777.808 0
445
root 1.41693 15.2622 -8.96052 5.68203 10.2291 -14.1166
lfemur -50.8073 19.7188 0.709952
ltibia 63.6016 0 0
lfoot -22.2928 -8.60522 0
ltoes -8.45855 0 0
rfemur -12.6935 -6.3673 10.1672
rtibia 38.0216 0 0
rfoot -14.2026 -15.5657 0
rtoes -50.1716 0 0
lowerback 5.57105 1.47247 5.07699
upperback 0.892042 2.2878 1.15862
thorax -2.05419 1.11019 -1.81483
lowerneck -7.14461 -0.513001 5.06772
upperneck 0.187779 -1.10577 0.102107
head 1.23574 -0.536163 -0.859858
lclavicle 5.32731e-14 -1.30282e-14 0
lhumerus -39.7375 -27.1547 98.3827
lradius 54.285 0 0
lwrist 6.83303 0 0
lhand -23.0984 -3.35022 0
lfingers 7.12502 0 0
lthumb 3.34783 26.5824 0
rclavicle 5.32731e-14 -1.30282e-14 0
rhumerus -48.0585 -2.17886 -89.108
rradius 66.008 0 0
rwrist 12.5954 0 0
rhand -28.6578 -27.0225 0
rfingers 7.12502 0 0
rthumb -2.02117 -776.989 0
446
root 1.41217 15.2799 -8.90349 5.72824 12.118 -14.3158
lfemur -52.1764 20.6213 -0.648049
ltibia 63.8057 0 0
lfoot -21.3352 -7.77266 0
ltoes -6.77062 0 0
rfemur -11.8641 -7.12605 10.5173
rtibia 37.5884 0 0
rfoot -13.8235 -15.9517 0
rtoes -50.3456 0 0
lowerback 5.33651 1.38606 5.39648
upperback 0.845162 2.18081 1.25926
thorax -1.97108 1.05667 -1.87565
lowerneck -7.12892 -0.689893 4.89407
upperneck 0.0950315 -1.3239 0.102278
head 1.19835 -0.646959 -0.835429
lclavicle 6.19408e-14 -2.09194e-14 0
lhumerus -39.8855 -26.6545 98.7254
lradius 54.2541 0 0
lwrist 6.41719 0 0
lhand -24.2686 -4.19104 0
lfingers 7.12502 0 0
lthumb 2.21774 25.7561 0
rclavicle 6.19408e-14 -2.09194e-14 0
rhumerus -48.0264 -2.04577 -88.7915
rradius 65.958 0 0
rwrist 12.4521 0 0
rhand -27.9204 -26.1784 0
rfingers 7.12502 0 0
rthumb -1.30902 -776.15 0
447
root 1.41671 15.3014 -8.84374 5.74859 14.0104 -14.5015
lfemur -53.4487 21.4715 -2.0596
ltibia 63.9566 0 0
lfoot -20.4543 -6.90491 0
ltoes -5.07612 0 0
rfemur -10.9964 -7.76558 10.8442
rtibia 37.1061 0 0
rfoot -13.2688 -16.3175 0
rtoes -50.5209 0 0
lowerback 5.0823 1.2961 5.70701
upperback 0.794165 2.06715 1.36541
thorax -1.88213 1 -1.92515
lowerneck -7.11457 -0.868143 4.7279
upperneck 0.0365509 -1.54514 0.10259
head 1.17269 -0.7586 -0.812675
lclavicle 6.78899e-14 -2.82495e-14 0
lhumerus -40.082 -26.1622 99.0963
lradius 54.189 0 0
lwrist 5.98549 0 0
lhand -25.3751 -5.04876 0
lfingers 7.12502 0 0
lthumb 1.14918 24.9116 0
rclavicle 6.78899e-14 -2.82495e-14 0
rhumerus -48.0469 -1.93361 -88.4319
rradius 65.9046 0 0
rwrist 12.2849 0 0
rhand -27.2919 -25.4019 0
rfingers 7.12502 0 0
rthumb -0.702002 -775.377 0
448
root 1.43027 15.3264 -8.78132 5.73266 15.8817 -14.6632
lfemur -54.5512 22.2578 -3.47588
ltibia 64.0258 0 0
lfoot -19.7136 -6.06412 0
ltoes -3.45078 0 0
rfemur -10.0916 -8.27868 11.1554
rtibia 36.5944 0 0
rfoot -12.5032 -16.6943 0
rtoes -50.6844 0 0
lowerback 4.82115 1.21348 5.97517
upperback 0.738569 1.95987 1.47358
thorax -1.7951 0.946709 -1.94979
lowerneck -7.10569 -1.05018 4.57029
upperneck 0.0107588 -1.77309 0.106383
head 1.15861 -0.87299 -0.791006
lclavicle 6.93138e-14 -3.42536e-14 0
lhumerus -40.3224 -25.7047 99.4858
lradius 54.0929 0 0
lwrist 5.54423 0 0
lhand -26.3298 -5.88547 0
lfingers 7.12502 0 0
lthumb 0.227158 24.0858 0
rclavicle 6.93138e-14 -3.42536e-14 0
rhumerus -48.1321 -1.8603 -88.0367
rradius 65.828 0 0
rwrist 12.0914 0 0
rhand -26.8325 -24.778 0
rfingers 7.12502 0 0
rthumb -0.258315 -774.756 0
449
root 1.45263 15.3551 -8.71627 5.67006 17.7071 -14.7905
lfemur -55.4108 22.9688 -4.84807
ltibia 63.9848 0 0
lfoot -19.1763 -5.31246 0
ltoes -1.97034 0 0
rfemur -9.15076 -8.65814 11.4583
rtibia 36.0731 0 0
rfoot -11.4916 -17.1135 0
rtoes -50.8228 0 0
lowerback 4.5658 1.14909 6.16757
upperback 0.67789 1.87199 1.58027
thorax -1.71777 0.903305 -1.93599
lowerneck -7.10638 -1.23843 4.4223
upperneck 0.016077 -2.01132 0.116996
head 1.15595 -0.992036 -0.769832
lclavicle 6.44062e-14 -3.81667e-14 0
lhumerus -40.602 -25.309 99.8841
lradius 53.9686 0 0
lwrist 5.0997 0 0
lhand -27.0448 -6.66326 0
lfingers 7.12502 0 0
lthumb -0.463321 23.316 0
rclavicle 6.44062e-14 -3.81667e-14 0
rhumerus -48.294 -1.84376 -87.6136
rradius 65.7085 0 0
rwrist 11.8692 0 0
rhand -26.6025 -24.3915 0
rfingers 7.12502 0 0
rthumb -0.0361369 -774.371 0
450
root 1.48529 15.3888 -8.64681 5.53951 19.479 -14.8966
lfemur -56.0428 23.6847 -6.25009
ltibia 63.8323 0 0
lfoot -18.8625 -4.57447 0
ltoes -0.604822 0 0
rfemur -8.08726 -8.89068 11.7537
rtibia 35.4174 0 0
rfoot -10.2512 -17.6433 0
rtoes -50.9764 0 0
lowerback 4.30909 1.10464 6.29236
upperback 0.613776 1.8054 1.69609
thorax -1.64464 0.870902 -1.87689
lowerneck -7.11059 -1.43071 4.28884
upperneck 0.0594107 -2.25726 0.133443
head 1.16577 -1.11427 -0.74988
lclavicle 5.04119e-14 -3.97918e-14 0
lhumerus -40.9441 -24.957 100.314
lradius 53.791 0 0
lwrist 4.62007 0 0
lhand -27.5402 -7.42374 0
lfingers 7.12502 0 0
lthumb -0.941786 22.56 0
rclavicle 5.04119e-14 -3.97918e-14 0
rhumerus -48.5461 -1.89476 -87.1362
rradius 65.5523 0 0
rwrist 11.5802 0 0
rhand -26.6556 -24.2431 0
rfingers 7.12502 0 0
rthumb -0.0874598 -774.223 0
451
root 1.52898 15.428 -8.57229 5.34317 21.2167 -14.9952
lfemur -56.5173 24.4425 -7.74995
ltibia 63.5931 0 0
lfoot -18.7226 -3.76973 0
ltoes 0.723084 0 0
rfemur -6.87117 -8.97826 12.0352
rtibia 34.5683 0 0
rfoot -8.81922 -18.2786 0
rtoes -51.1704 0 0
lowerback 4.03732 1.07103 6.38193
upperback 0.547204 1.74913 1.8277
thorax -1.56696 0.844081 -1.78224
lowerneck -7.11264 -1.62413 4.17061
upperneck 0.144465 -2.50687 0.152426
head 1.18855 -1.2375 -0.731916
lclavicle 2.80182e-14 -3.97431e-14 0
lhumerus -41.3607 -24.6189 100.791
lradius 53.549 0 0
lwrist 4.08913 0 0
lhand -27.9011 -8.21448 0
lfingers 7.12502 0 0
lthumb -1.29031 21.7708 0
rclavicle 2.80182e-14 -3.97431e-14 0
rhumerus -48.8822 -2.00094 -86.5891
rradius 65.3789 0 0
rwrist 11.2137 0 0
rhand -26.9563 -24.2576 0
rfingers 7.12502 0 0
rthumb -0.377894 -774.236 0
452
root 1.58227 15.4714 -8.49448 5.10577 22.9362 -15.0766
lfemur -56.8433 25.1657 -9.29004
ltibia 63.2781 0 0
lfoot -18.7153 -2.953 0
ltoes 2.00865 0 0
rfemur -5.58881 -8.93658 12.2995
rtibia 33.6438 0 0
rfoot -7.18999 -18.9407 0
rtoes -51.369 0 0
lowerback 3.7534 1.0429 6.43927
upperback 0.476689 1.69697 1.96563
thorax -1.48766 0.819556 -1.66343
lowerneck -7.11722 -1.82006 4.06234
upperneck 0.264859 -2.76153 0.173819
head 1.22329 -1.36258 -0.715412
lclavicle 5.8241e-16 -3.84727e-14 0
lhumerus -41.83 -24.3035 101.297
lradius 53.2668 0 0
lwrist 3.53662 0 0
lhand -28.1365 -9.00649 0
lfingers 7.12502 0 0
lthumb -1.51769 20.978 0
rclavicle 5.8241e-16 -3.84727e-14 0
rhumerus -49.2848 -2.14558 -85.9959
rradius 65.1888 0 0
rwrist 10.8088 0 0
rhand -27.4307 -24.406 0
rfingers 7.12502 0 0
rthumb -0.836053 -774.382 0
453
root 1.64373 15.5175 -8.41517 4.85206 24.6534 -15.131
lfemur -57.0299 25.7779 -10.8127
ltibia 62.8982 0 0
lfoot -18.7996 -2.179 0
ltoes 3.24715 0 0
rfemur -4.3265 -8.78134 12.5434
rtibia 32.7621 0 0
rfoot -5.35794 -19.551 0
rtoes -51.5362 0 0
lowerback 3.46024 1.01493 6.46737
upperback 0.400745 1.64268 2.10045
thorax -1.40963 0.794042 -1.53188
lowerneck -7.12902 -2.01989 3.95875
upperneck 0.414216 -3.02261 0.197494
head 1.26899 -1.49032 -0.699835
lclavicle -2.85381e-14 -3.64327e-14 0
lhumerus -42.3302 -24.02 101.811
lradius 52.9687 0 0
lwrist 2.99226 0 0
lhand -28.2557 -9.77081 0
lfingers 7.12502 0 0
lthumb -1.63274 20.2115 0
rclavicle -2.85381e-14 -3.64327e-14 0
rhumerus -49.7365 -2.31194 -85.3805
rradius 64.9824 0 0
rwrist 10.4043 0 0
rhand -28.0048 -24.6593 0
rfingers 7.12502 0 0
rthumb -1.39055 -774.632 0
454
root 1.71192 15.5648 -8.33613 4.60679 26.3843 -15.1487
lfemur -57.0861 26.2028 -12.2603
ltibia 62.4642 0 0
lfoot -18.9343 -1.50249 0
ltoes 4.43385 0 0
rfemur -3.17056 -8.52822 12.7636
rtibia 32.0413 0 0
rfoot -3.31748 -20.0309 0
rtoes -51.636 0 0
lowerback 3.16076 0.981765 6.46922
upperback 0.317886 1.58005 2.22271
thorax -1.33578 0.764255 -1.39897
lowerneck -7.15271 -2.225 3.85457
upperneck 0.586156 -3.2915 0.223326
head 1.32465 -1.62157 -0.684654
lclavicle -5.5986e-14 -3.40751e-14 0
lhumerus -42.8395 -23.7773 102.316
lradius 52.6787 0 0
lwrist 2.4858 0 0
lhand -28.2676 -10.4785 0
lfingers 7.12502 0 0
lthumb -1.64427 19.5011 0
rclavicle -5.5986e-14 -3.40751e-14 0
rhumerus -50.2196 -2.48328 -84.7667
rradius 64.7601 0 0
rwrist 10.0393 0 0
rhand -28.6048 -24.9888 0
rfingers 7.12502 0 0
rthumb -1.97 -774.957 0
